<svg width="2720" height="376" viewBox="0 0 2720 376" fill="none" xmlns="http://www.w3.org/2000/svg">
<path d="M879 2V375H909.287V54.3115L1161.41 375H1185V2H1154.19V323.666L909.287 2H879Z" fill="black"/>
<path d="M449 375L620.719 2H650.93L823 375H788.48L636.255 39.4068L483.949 375H449Z" fill="black"/>
<path d="M1805 2V31H2050V2H1805Z" fill="black"/>
<path d="M1805 174V203H2050V174H1805Z" fill="black"/>
<path d="M1805 347V375H2050V347H1805Z" fill="black"/>
<path d="M2120 326.776C2199.74 393.585 2375.07 401.617 2390.9 292.697C2404.56 198.674 2287.58 185.05 2228.31 166.442C2133.18 142.891 2152.91 57.5476 2211.91 34.5614C2261.12 15.3894 2310.04 25.8071 2364.63 56.7242L2378.01 34.5614C2348.46 11.8027 2275.08 -12.3402 2211.91 7.13871C2181.81 16.4219 2153.04 33.5672 2141.42 71.4412C2085.76 252.85 2434.72 157.194 2350.82 318.971C2317.94 371.594 2182.49 345.251 2139.2 304.928L2120 326.776Z" fill="black"/>
<path d="M1310 2V374H1343V2H1310Z" fill="black"/>
<path d="M2424 2H2720V28.0839H2588.68V375H2557.93V28.0839H2424V2Z" fill="black"/>
<path d="M1468 1V29.7181H1713.66V1H1468Z" fill="black"/>
<path d="M1468 174V202.718H1713.66V174H1468Z" fill="black"/>
<path d="M1497 174H1468V376H1497V174" fill="black"/>
<path d="M0 375V2H26.7989L186.914 291.407L351.665 2H379V375H351.665V62.7084L193.103 327.527H180.137L26.7989 63.4093V375H0Z" fill="black"/>
</svg>
