<svg width="891" height="404" viewBox="0 0 891 404" fill="none" xmlns="http://www.w3.org/2000/svg">
<rect width="891" height="404" rx="15" fill="#0D1117"/>
<path d="M148.28 228V178.16H152.68L165 202.56L177.56 178.08H181.8V228H176.52V190.4L165.72 210.48H163.56L153.48 190.64V228H148.28ZM257.96 228L252.92 213.44H236.84L231.8 228H226.28L244.68 177.28H245.32L263.72 228H257.96ZM244.92 190.08L238.36 209.12H251.48L244.92 190.08ZM309 178.16H314.44L335.4 215.12V178.16H341.48V178.72C341.16 179.04 340.947 179.387 340.84 179.76C340.787 180.133 340.76 180.773 340.76 181.68V228H336.36L314.36 188.8V228H309V178.16ZM391.48 228V223.28H401.32V182.88H392.04V178.16H416.76V182.88H406.92V223.36H417.24V228H391.48ZM471.24 228V178.08H499.96V182.96H476.84V198.64H495.48V203.52H476.84V228H471.24ZM549.72 228V178.08H580.28V183.04H555V199.44H575.88V204.56H555V223.04H580.04V228H549.72ZM644.76 228.8C638.307 228.8 633.107 226.693 629.16 222.48L632.04 217.44L632.36 216.72L632.92 217.04C633.027 217.413 633.16 217.84 633.32 218.32C633.48 218.747 633.853 219.28 634.44 219.92C635.827 221.093 637.427 222.027 639.24 222.72C641.107 223.413 643.213 223.76 645.56 223.76C648.547 223.76 651 222.933 652.92 221.28C654.893 219.573 655.88 217.547 655.88 215.2C655.88 213.653 655.56 212.347 654.92 211.28C654.333 210.213 653.213 209.173 651.56 208.16C649.96 207.147 647.587 205.973 644.44 204.64C639.267 202.613 635.693 200.347 633.72 197.84C631.747 195.333 630.76 192.667 630.76 189.84C630.76 186.16 632.12 183.2 634.84 180.96C637.56 178.667 641.267 177.52 645.96 177.52C648.68 177.52 651.24 178.08 653.64 179.2C656.04 180.267 658.093 181.787 659.8 183.76L656.2 188.56L655.72 188.24C655.667 187.813 655.56 187.387 655.4 186.96C655.24 186.533 654.867 186 654.28 185.36C653 184.133 651.64 183.307 650.2 182.88C648.76 182.4 647.053 182.16 645.08 182.16C642.467 182.16 640.387 182.88 638.84 184.32C637.293 185.76 636.52 187.467 636.52 189.44C636.52 190.933 636.84 192.267 637.48 193.44C638.173 194.56 639.4 195.68 641.16 196.8C642.92 197.92 645.48 199.147 648.84 200.48C652.093 201.813 654.627 203.173 656.44 204.56C658.253 205.893 659.533 207.36 660.28 208.96C661.027 210.507 661.4 212.32 661.4 214.4C661.4 216.693 660.813 218.96 659.64 221.2C658.52 223.387 656.733 225.2 654.28 226.64C651.827 228.08 648.653 228.8 644.76 228.8ZM721.64 228V183.12H707.48V178.08H742.04V183.12H727.32V228H721.64Z" fill="white"/>
</svg>
